<svg width="766" height="171" viewBox="0 0 766 171" fill="none" xmlns="http://www.w3.org/2000/svg">
  <path d="M1 119C24 96 68 83 123 83C162 48 234 34 323 39C346 11 397 -11 431 8C470 -2 519 10 561 29C600 25 628 59 649 83C704 82 748 95 764 119C773 137 749 156 699 157C648 164 609 151 573 151C532 169 459 174 401 158C353 169 267 173 197 164C105 160 31 147 1 119Z" fill="#FFFEEE"/>
  <path d="M122 122C152 133 187 138 253 140" stroke="#222" stroke-width="1.2" stroke-linecap="round" opacity="0.75"/>
  <path d="M360 86C389 68 431 73 461 73C488 72 492 50 526 54" stroke="#222" stroke-width="1.2" stroke-linecap="round" opacity="0.75"/>
</svg>
