<svg width="1024" height="461" viewBox="0 0 1024 461" fill="none" xmlns="http://www.w3.org/2000/svg">
  <path d="M14 255C39 215 77 195 128 194C118 107 152 19 230 3C306 -12 358 37 369 101C427 72 477 62 547 134C607 99 708 119 760 192C820 188 889 224 913 285C982 282 1031 315 1022 358C1015 395 940 402 891 384C819 449 691 482 592 429C517 450 384 449 351 403C291 415 142 389 119 337C63 337 4 306 14 255Z" fill="#FFFEEE"/>
  <path d="M38 254C73 232 100 226 133 226" stroke="#222" stroke-width="1.2" stroke-linecap="round" opacity="0.75"/>
  <path d="M128 303C154 284 186 273 229 267" stroke="#222" stroke-width="1.2" stroke-linecap="round" opacity="0.75"/>
  <path d="M319 204C346 169 382 151 435 143" stroke="#222" stroke-width="1.2" stroke-linecap="round" opacity="0.75"/>
  <path d="M538 232C563 194 590 176 629 172" stroke="#222" stroke-width="1.2" stroke-linecap="round" opacity="0.75"/>
</svg>
